<svg xmlns="http://www.w3.org/2000/svg" width="14.227" height="24.288" viewBox="0 0 14.227 24.288"><defs><style>.a{fill:#fff;}</style></defs><path class="a" d="M13.516,6a.712.712,0,0,0,.712-.712V.712A.711.711,0,0,0,13.516,0H8.181A4.527,4.527,0,0,0,3.658,4.522V9.146H.712A.711.711,0,0,0,0,9.857V14.43a.711.711,0,0,0,.712.712H3.658v8.434a.711.711,0,0,0,.712.712H8.943a.711.711,0,0,0,.712-.712V15.142H12.6a.712.712,0,0,0,.7-.572L14.214,10a.711.711,0,0,0-.7-.851H9.654V6ZM8.943,10.569h3.705l-.63,3.15H8.943a.711.711,0,0,0-.712.712v8.434H5.081V14.43a.711.711,0,0,0-.712-.712H1.423v-3.15H4.37a.711.711,0,0,0,.712-.712V4.522a3.1,3.1,0,0,1,3.1-3.1H12.8v3.15H8.943a.711.711,0,0,0-.712.712V9.857A.711.711,0,0,0,8.943,10.569Zm0,0"/></svg>