<svg xmlns="http://www.w3.org/2000/svg" width="27.506" height="25.985" viewBox="0 0 27.506 25.985"><defs><style>.a{fill:#fff;}</style></defs><g transform="translate(-0.001)"><g transform="translate(0.001)"><path class="a" d="M20.688,15.82l3.6-2a2.215,2.215,0,0,0-1.595-4.092l-5.31,1.3A4.582,4.582,0,0,0,8.6,9.842a2.219,2.219,0,0,0-2.029,1.047L1.1,19.149l-.436.711c-.007.011-.023.041-.029.053A5.967,5.967,0,0,0,5.96,28.547H16.5c.015,0,.029,0,.046,0l.7.695a1.82,1.82,0,0,0,1.295.538,1.8,1.8,0,0,0,1.295-.536,1.82,1.82,0,0,0,.479-.82l.175.175a1.887,1.887,0,0,0,2.589,0,1.828,1.828,0,0,0,.479-.839A1.88,1.88,0,0,0,26,27.614a1.84,1.84,0,0,0,.138-2.437,1.834,1.834,0,0,0,.834-3.072Zm-7.85-7.9a3.668,3.668,0,0,1,2.714,6.132.458.458,0,0,0,.279.763,1.834,1.834,0,0,1,1.591,1.815H9.452l1.135-3.972A2.2,2.2,0,0,0,9.5,10.092a3.642,3.642,0,0,1,3.342-2.176ZM.918,22.587a5.028,5.028,0,0,1,.524-2.25l.436-.711.014-.026,5.444-8.212a.105.105,0,0,0,.011-.017,1.284,1.284,0,0,1,1.412-.585h.019a1.327,1.327,0,0,1,.261.1,1.288,1.288,0,0,1,.718,1.165,1.262,1.262,0,0,1-.051.356L8.4,16.96a.458.458,0,0,0,.441.584h9.494a.917.917,0,0,1,0,1.834H11.462a.458.458,0,0,0,0,.917h8.252a.917.917,0,0,1,0,1.834H11a.458.458,0,1,0,0,.917h7.335a.917.917,0,0,1,0,1.834H10.545a.458.458,0,1,0,0,.917H16.5a.917.917,0,0,1,0,1.834H5.96A5.049,5.049,0,0,1,.918,22.587Zm18.267,6.006a.936.936,0,0,1-1.292,0l-.359-.36a1.849,1.849,0,0,0,.268-.221,1.82,1.82,0,0,0,.538-1.3,1.84,1.84,0,0,0-.026-.295l.876.876.006.006a.908.908,0,0,1-.01,1.291Zm3.244-.65a.95.95,0,0,1-1.3,0l-1.289-1.289-.01-.01-.943-.94a1.8,1.8,0,0,0,1.238-1.358l2.3,2.3a.91.91,0,0,1,0,1.3Zm2.92-.976a.933.933,0,0,1-1.3,0l-.976-.972-2.992-3a1.788,1.788,0,0,0,1.367-1.228L24.375,24.7l0,0,.018.018.953.953a.921.921,0,0,1,0,1.3Zm.972-2.916a.936.936,0,0,1-1.281.015l-.015-.015-3.7-3.7a1.834,1.834,0,0,0-1.4-.96,1.834,1.834,0,0,0-1.582-2.762A2.756,2.756,0,0,0,16.67,14.1a4.556,4.556,0,0,0,.724-2.135l5.52-1.348a1.3,1.3,0,0,1,1.233,2.176,1.323,1.323,0,0,1-.3.219l-4.139,2.3a.458.458,0,0,0-.1.725l6.712,6.716A.917.917,0,0,1,26.321,24.051Z" transform="translate(-0.001 -3.791)"/><path class="a" d="M23.926,12.593a.458.458,0,0,0,.321-.133,1.834,1.834,0,0,1,2.03-.386.459.459,0,0,0,.367-.841,2.743,2.743,0,0,0-3.042.576.458.458,0,0,0,.321.783Z" transform="translate(-12.709 -5.959)"/><path class="a" d="M39,5.6A1.6,1.6,0,1,0,40.6,4,1.6,1.6,0,0,0,39,5.6Zm2.292,0a.688.688,0,1,1-.688-.688A.688.688,0,0,1,41.292,5.6Z" transform="translate(-21.121 -2.166)"/><path class="a" d="M52.292,0a2.292,2.292,0,1,0,2.292,2.292A2.292,2.292,0,0,0,52.292,0Zm0,3.668a1.375,1.375,0,1,1,.973-.4A1.375,1.375,0,0,1,52.292,3.668Z" transform="translate(-27.078)"/><path class="a" d="M52,26.375A1.375,1.375,0,1,0,53.375,25,1.375,1.375,0,0,0,52,26.375Zm1.375-.458a.458.458,0,1,1-.458.458A.458.458,0,0,1,53.375,25.917Z" transform="translate(-28.161 -13.539)"/></g></g></svg>