<svg xmlns="http://www.w3.org/2000/svg" width="25.314" height="25.314" viewBox="0 0 25.314 25.314"><defs><style>.a{fill:#fff;}</style></defs><path class="a" d="M19.89,14.465A5.406,5.406,0,0,0,15.526,16.7l-4.937-2.469a5.352,5.352,0,0,0,.259-1.571,5.351,5.351,0,0,0-.259-1.571l4.937-2.469a5.4,5.4,0,1,0-1.061-3.192A5.35,5.35,0,0,0,14.725,7L9.788,9.465a5.424,5.424,0,1,0,0,6.385l4.937,2.469a5.35,5.35,0,0,0-.259,1.571,5.424,5.424,0,1,0,5.424-5.424Zm0-12.657a3.616,3.616,0,1,1-3.616,3.616A3.62,3.62,0,0,1,19.89,1.808ZM5.424,16.273a3.616,3.616,0,1,1,3.616-3.616A3.62,3.62,0,0,1,5.424,16.273ZM19.89,23.506a3.616,3.616,0,1,1,3.616-3.616A3.62,3.62,0,0,1,19.89,23.506Z" transform="translate(0)"/></svg>