<svg xmlns="http://www.w3.org/2000/svg" width="25.06" height="20.574" viewBox="0 0 25.06 20.574"><defs><style>.a{fill:#fff;}</style></defs><path class="a" d="M.492,20.551a14.7,14.7,0,0,0,7.89,2.274A14.43,14.43,0,0,0,23.022,8.153,5.993,5.993,0,0,0,25.185,4.1a.792.792,0,0,0-1.192-.683,3.273,3.273,0,0,1-2.661.446,5.651,5.651,0,0,0-6.694-.9,5.437,5.437,0,0,0-2.952,5.1A13.113,13.113,0,0,1,3.18,3.41a.792.792,0,0,0-1.294.106,5.515,5.515,0,0,0-.123,5.447.824.824,0,0,0-.688.82A5.582,5.582,0,0,0,3.019,14a.79.79,0,0,0-.2.82,5.681,5.681,0,0,0,3.215,3.444,9.214,9.214,0,0,1-5.018.838.792.792,0,0,0-.521,1.453ZM8.6,18.532a.792.792,0,0,0-.465-1.418,4.128,4.128,0,0,1-3.241-1.686,5.581,5.581,0,0,0,1.08-.173.792.792,0,0,0-.051-1.539,4.062,4.062,0,0,1-3.078-2.764,5.461,5.461,0,0,0,1.207.16A.792.792,0,0,0,4.5,9.659,3.932,3.932,0,0,1,2.818,5.367a14.712,14.712,0,0,0,9.746,4.35.79.79,0,0,0,.809-.968,3.861,3.861,0,0,1,2.015-4.4,4.046,4.046,0,0,1,4.947.751c.472.5,2.063.516,2.872.327a5.1,5.1,0,0,1-1.443,1.7.791.791,0,0,0-.337.687,12.867,12.867,0,0,1-3.543,9.454,12.959,12.959,0,0,1-9.5,3.972,13.289,13.289,0,0,1-4.264-.7A10.686,10.686,0,0,0,8.6,18.532Z" transform="translate(-0.124 -2.252)"/></svg>