<svg xmlns="http://www.w3.org/2000/svg" xmlns:xlink="http://www.w3.org/1999/xlink" width="513.139" height="418.819" viewBox="0 0 513.139 418.819"><defs><style>.a,.r,.w{fill:#fff;}.a{fill-rule:evenodd;opacity:0.916;}.b,.c{fill:#f1f1f1;}.b{opacity:0.691;}.d{fill:#65617d;}.e{fill:#3f3d56;}.f{fill:#ff9b22;}.g{fill:#fbbebe;}.h,.l,.w{opacity:0.1;}.i{fill:#e3e8f4;}.j{fill:none;stroke:#3f3d56;stroke-miterlimit:10;}.k{fill:#dde3e9;}.l{fill:#00bfa6;}.m{fill:url(#a);}.n{fill:#1d2366;}.o{fill:#4b60ff;}.p{fill:#c7daf5;}.q{fill:#4b60fb;}.s{opacity:0.03;}.t{fill:#ffb0b1;}.u{fill:#dce7ff;}.v{fill:#be8b87;}.x{fill:#efc8c4;}.y{fill:#727a9c;}.z{fill:#ff4133;}</style><linearGradient id="a" x1="0.5" y1="1" x2="0.5" gradientUnits="objectBoundingBox"><stop offset="0" stop-color="gray" stop-opacity="0.251"/><stop offset="0.54" stop-color="gray" stop-opacity="0.122"/><stop offset="1" stop-color="gray" stop-opacity="0.102"/></linearGradient></defs><path class="a" d="M.087,71.129c2.907,52.892,158.9,154.978,187.858,104.88S189.063,31.89,128.375,7.814-2.82,18.237.087,71.129Z" transform="translate(513.139 219.368) rotate(90)"/><g transform="translate(370.322 -4440.231)"><path class="b" d="M354.176,346.653c-17.344-5.583-35.682-10.263-54.423-9.781-27.552.712-51.41,5.266-61.211,23.2-10.886,16.61,15.308,90.835,10.488,108.619-5.94,21.91-50.938-4.188-62.971,16.146-6.463,10.922-13.282,22.073-14.405,34.074-1.541,16.662,8.609,33.319,24.614,44.485s37.3,17.116,58.7,18.505c11.385.735,23.283.167,33.42-3.911,10.722-4.3,18.563-12.164,29.329-16.414,9.978-3.935,21.608-4.441,32.8-3.864A183.4,183.4,0,0,1,393.276,565c15.6,4.642,30.1,11.323,45.664,16.032s32.969,7.374,48.92,3.586c14.977-3.553,26.856-12.312,37.569-21.185a407.438,407.438,0,0,0,47.993-46.8c9.675-11.17,18.688-22.966,23.01-36.018,8.254-24.957-2.8-53.215-27.547-70.4-20.5-14.246-48.075-20.535-75.08-24.356-24.628-3.52-53.121-3.868-75.757-12.832C396.46,364.456,376.821,353.941,354.176,346.653Z" transform="translate(-541.821 4222.278)"/><ellipse class="c" cx="9.606" cy="9.606" rx="9.606" ry="9.606" transform="translate(21.087 4451.396)"/><ellipse class="b" cx="9.606" cy="9.606" rx="9.606" ry="9.606" transform="translate(-89.395 4470.306)"/><ellipse class="c" cx="4.639" cy="4.639" rx="4.639" ry="4.639" transform="translate(-119.2 4545.813)"/><ellipse class="c" cx="16.1" cy="16.1" rx="16.1" ry="16.1" transform="translate(-323.099 4448.832)"/><ellipse class="b" cx="16.1" cy="16.1" rx="16.1" ry="16.1" transform="translate(-346.497 4604.785)"/><g transform="translate(-204.17 4440.231)"><path class="d" d="M570.479,385.718c-.568.053-1.146.027-1.71.115a7.786,7.786,0,0,0-2.665,1.07c-4.042,2.3-7.857,5.463-9.531,9.8a1.333,1.333,0,0,0-.124.866,1.465,1.465,0,0,0,.471.613l1.572,1.43a2.221,2.221,0,0,0,.7.489,2.278,2.278,0,0,0,1.288-.04c4.321-.99,8.914-2.132,11.947-5.365,1.439-1.532,2.767-3.642,4.885-3.7a22.445,22.445,0,0,1,2.594.444,1.9,1.9,0,0,0,2.136-1.124,2.363,2.363,0,0,0-.142-1.257l-1.306-4.348c-.355-1.19-3.939-1.252-5.134-1.039C573.637,383.986,572.411,385.54,570.479,385.718Z" transform="translate(-554.037 -248.984)"/><path class="d" d="M605.131,428.736a36.566,36.566,0,0,1-.187,4.468,13.034,13.034,0,0,1-1.106,3.353,22.016,22.016,0,0,1-3.02,4.757,9.362,9.362,0,0,1-4.135,3.109,4.359,4.359,0,0,1-4.752-1.257,6.3,6.3,0,0,1-.826-4.09,25.05,25.05,0,0,1,2.274-10.193c.675-1.332,1.532-2.6,2.221-3.948,1.439-2.794,2.261-6.107,4.743-8.034a15.6,15.6,0,0,0,4.93,1.355c.662.071,2.554.115,2.776.964.151.573-1.093,2.176-1.332,2.74a18.7,18.7,0,0,0-1.585,6.777Z" transform="translate(-573.304 -267.509)"/><path class="e" d="M581.293,271.369a15.219,15.219,0,0,1,1.332,4.139c.089.888,0,1.777,0,2.665a17.41,17.41,0,0,0,.6,3.6L585.7,291.9a12.972,12.972,0,0,1,.546,4.615,24.32,24.32,0,0,0-.5,3.064,11.886,11.886,0,0,0,.373,2.323,14.309,14.309,0,0,1-.373,7.062,1.056,1.056,0,0,0-.076.546c.062.289.342.466.6.6a25.365,25.365,0,0,0,8.572,2.856,83.965,83.965,0,0,0,5.641-20.141c.631-4.193.937-8.438,1.745-12.6a1.03,1.03,0,0,1,.289-.64c.3-.253.759-.093,1.115.076a99.5,99.5,0,0,1,13.062,7.55,16.317,16.317,0,0,0,3.016-13.506,27.978,27.978,0,0,0-2.221-5.809,32.817,32.817,0,0,0-3.775-6.338c-3.3-4.13-8.128-6.768-13.1-8.558-3.024-1.093-6.138-1.9-9.247-2.727-1.741-.466-4.659-1.985-6.351-.8-1.776,1.23-2.958,4.281-3.686,6.218a22.907,22.907,0,0,0-1.448,7.5A21.2,21.2,0,0,0,581.293,271.369Z" transform="translate(-567.072 -174.194)"/><path class="e" d="M628.123,315.925c-.928,1.013-.147,2.629-.324,4a5.519,5.519,0,0,1-.653,1.754l-4.25,8.345a15.472,15.472,0,0,0-1.581,4c-.582,3.011.613,6.4-.915,9.056a9.54,9.54,0,0,0-1.461,2.563,20.553,20.553,0,0,0-.076,2.158,14.373,14.373,0,0,1-.8,2.4,16.734,16.734,0,0,0-.413,2.363,13.9,13.9,0,0,1-4.992,8.634,7.942,7.942,0,0,1-5.507,1.874,4.788,4.788,0,0,1-4.353-3.46,4.552,4.552,0,0,0-.524-1.936c-.586-.768-1.821-.8-2.385-1.586l2.185-3.6a8.5,8.5,0,0,0,1.483-3.58c.133-1.594-.635-3.184-.36-4.761.235-1.355,1.208-2.483,1.5-3.824.364-1.665-.364-3.349-.759-5.01-.968-4.09.115-8.354,1.195-12.436,1.434-5.4,2.9-10.886,5.809-15.66C616.74,310.342,622.07,313.34,628.123,315.925Z" transform="translate(-578.198 -206.541)"/><path class="f" d="M621.039,132.112a7.245,7.245,0,0,1,.093,2.985c-.155,2.221.315,4.441.209,6.693a39.813,39.813,0,0,1-1.279,6.591c-1.363,6.249-1.035,12.76-2.269,19.035-1.523,7.772-5.418,15.012-6.187,22.9-.244,2.5-.213,5.187-1.585,7.3a114.652,114.652,0,0,1-22.97-13.493c1.563-11.6,3.109-23.25,2.9-34.948a15,15,0,0,1,.293-4.21,12.981,12.981,0,0,1,1.581-3.278c1.719-2.794,3.611-5.476,5.5-8.154,1.208-1.714,2.514-3.513,4.441-4.317s4.21-.444,6.311-.062l7.577,1.386C617.229,130.828,620.364,130.278,621.039,132.112Z" transform="translate(-571.061 -107.325)"/><path class="g" d="M630.968,137.958a8.921,8.921,0,0,1-1.443,5.6,15.826,15.826,0,0,1-19.231,6.16,30.719,30.719,0,0,1-7.426-5.183,6.612,6.612,0,0,1-1.968-2.305,4.481,4.481,0,0,1,1.5-4.841,12.718,12.718,0,0,1,4.854-2.305C613.012,133.285,629.6,127.627,630.968,137.958Z" transform="translate(-578.622 -109.094)"/><path class="e" d="M645.655,131.567c5.245,4.219,12.88,8.239,18.822,11.365,2.021,1.066,4.264,2.265,4.992,4.441a8.646,8.646,0,0,1,.133,3.655,24.656,24.656,0,0,1-1.417,6.942c-1.07,2.563-2.962,4.677-4.481,7-2.665,4.077-4.228,8.883-7.519,12.484,2.221,7.377,4.65,14.745,5.441,22.4a1.031,1.031,0,0,1-.067.626,1.075,1.075,0,0,1-.346.315l-5.525,3.624a6.216,6.216,0,0,0-1.594,1.332c-.977,1.27-.848,3.056-1.452,4.535a5.893,5.893,0,0,1-3.42,3.109,10.53,10.53,0,0,1-4.7.5,10.934,10.934,0,0,1-5.614-1.976,15.526,15.526,0,0,1-3.38-4.037,15.715,15.715,0,0,1-1.776-3.238,14.581,14.581,0,0,1-.6-5.156,54.516,54.516,0,0,1,.946-9.873c.258-1.292.577-2.567.782-3.868.409-2.62.329-5.294.631-7.928a53.323,53.323,0,0,1,1.976-8.736,45.078,45.078,0,0,0,1.155-5.374,58.92,58.92,0,0,1,2.589-9.327L643,149.141c.378-1.133.76-2.261,1.208-3.366.835-2.065,1.91-4.077,2.194-6.28.315-2.4-2.278-5.254-1.4-7.51C645.069,131.736,645.455,131.407,645.655,131.567Z" transform="translate(-596.681 -108.877)"/><path class="e" d="M672.312,164.42a5.04,5.04,0,0,1,2.349,3.158,17.9,17.9,0,0,1,.693,8.971,16.056,16.056,0,0,0-.355,2.292,15.287,15.287,0,0,0,.262,2.665c.444,3.4,0,6.848.147,10.277.151,3.855.99,7.928-.626,11.432-1.075,2.327-3.109,4.059-5.116,5.632a102.38,102.38,0,0,1-24.5,14.141,6.414,6.414,0,0,0,.533-6.706,12.471,12.471,0,0,0-4.885-5.01,31.478,31.478,0,0,0,7.35-2.625c4.654-2.363,8.643-5.823,12.582-9.247a3.828,3.828,0,0,0,1.306-1.652c.4-1.332-.7-2.6-1.466-3.766-2.314-3.553-1.776-8.194-.808-12.307,1.079-4.508,2.665-9,5.556-12.622A12.485,12.485,0,0,1,672.312,164.42Z" transform="translate(-600.944 -127.162)"/><path class="g" d="M630.735,282.77a6.07,6.07,0,0,1-1.528,1.679c-1.332.888-3.162.551-4.65-.08a13.568,13.568,0,0,1-3.775-2.4,5.917,5.917,0,0,0-1.674-1.244c-1.164-.444-2.789-.111-3.442-1.181a.625.625,0,0,1-.107-.382c.04-.386.546-.493.937-.515a11.632,11.632,0,0,0,5.139-1.586,4.933,4.933,0,0,1-1.261-1.332,1.039,1.039,0,0,1-.213-.631,1.128,1.128,0,0,1,.386-.631,9.886,9.886,0,0,1,10.872-1.812,2.168,2.168,0,0,1,.888.666,2.468,2.468,0,0,1,.324.888c.289,1.243,1.332,3.109.955,4.366C633.169,280.017,631.592,281.549,630.735,282.77Z" transform="translate(-586.908 -186.834)"/><path class="e" d="M575.208,192.078c5.525-6.382,7.994-14.781,10.286-22.9l1.639-5.774,3.953-13.906c.582-2.052,1.164-4.1,1.55-6.2a57.331,57.331,0,0,0,.684-10.97,11.873,11.873,0,0,0-1.026-4.406c-.386-.959-.573-1.981-.888-2.971a14.827,14.827,0,0,0-1.781-3.9,4.086,4.086,0,0,0-.8-.959,4.672,4.672,0,0,0-1.816-.737,15.988,15.988,0,0,0-4.348-.662,5.389,5.389,0,0,0-3.944,1.683,20.432,20.432,0,0,0-1.63,2.931,11.43,11.43,0,0,0-.724,1.23,6.217,6.217,0,0,0-.4,2.016q-.346,4.2-.591,8.4c-.075,1.275-.142,2.558-.093,3.837.04.995.147,1.985.253,2.976l1.053,9.7c.244,2.278.071,4.41.275,6.693.5,5.512-.688,11.023-1.905,16.433a29.555,29.555,0,0,1-2.425,7.506c-1.1,2.061-2.74,4.153-2.305,6.449a22.392,22.392,0,0,1,.617,2.354,4.725,4.725,0,0,0,.147,1.488,1.776,1.776,0,0,0,1.9.888A4.4,4.4,0,0,0,575.208,192.078Z" transform="translate(-561.666 -101.742)"/><path class="g" d="M571.606,218.613c.169,1.275.04,2.567.1,3.851a25.966,25.966,0,0,0,.888,4.885c.444,1.776,1.013,3.766,2.58,4.752a8.1,8.1,0,0,1,1.124.706,1.092,1.092,0,0,1,.364,1.19l-1.221-.2a1.239,1.239,0,1,1-1.705,1.777,2.89,2.89,0,0,1-.111,1.19.968.968,0,0,1-.888.666,1.43,1.43,0,0,1-.635-.266l-3.189-1.976a5.884,5.884,0,0,1-2.3-2.221l-1.395-2.1a5.017,5.017,0,0,1-.724-1.332c-.52-1.777.933-3.748.178-5.423a7.292,7.292,0,0,0-.795-1.164c-1.612-2.221-1.51-5.241-1.332-7.994.058-.928.227-2.03,1.066-2.434a2.19,2.19,0,0,1,2.083.369,8.846,8.846,0,0,0,1.865,1.177c.444.151.933.169,1.377.329.622.218,1.2,1.066,1.617,1.568A5.2,5.2,0,0,1,571.606,218.613Z" transform="translate(-557.389 -153.82)"/><ellipse class="h" cx="14.212" cy="14.212" rx="14.212" ry="14.212" transform="translate(20.728 8.465)"/><ellipse class="g" cx="14.212" cy="14.212" rx="14.212" ry="14.212" transform="translate(20.626 7.848)"/><path class="e" d="M623.357,84.545a7.576,7.576,0,0,1,2.949,2.638,13.207,13.207,0,0,1,.759,2.487c.777,2.665,2.847,4.979,2.971,7.754.138,3.042-2.145,5.685-4.73,7.279a3.509,3.509,0,0,1-2.034.684,6.541,6.541,0,0,1-2.087-.822c-2.918-1.3-6.182.346-9.273,1.1a16.646,16.646,0,0,1-9.682-.568,9.162,9.162,0,0,1-4.326-3,4.747,4.747,0,0,1-.529-5.014c.444-.791,1.181-1.506,1.133-2.407a12.444,12.444,0,0,0-.444-1.563,3.6,3.6,0,0,1,.755-2.4,34.712,34.712,0,0,1,7.683-8.692,5.5,5.5,0,0,1,3.078-1.492c2.336-.1,4.344,1.639,6.746,1.648A12.62,12.62,0,0,1,623.357,84.545Z" transform="translate(-576.523 -80.53)"/><path class="i" d="M606.912,276.706s-25.449,2.039-30.512-1.568l23.281-3.589Z" transform="translate(-565.141 -186.713)"/><path class="h" d="M606.912,276.706s-25.449,2.039-30.512-1.568l23.281-3.589Z" transform="translate(-565.141 -186.713)"/><path class="i" d="M602.27,271.592l-7.128-4.512s-21.265,6.111-27.092,3.589l5.929-8.319,21.069,4.108Z" transform="translate(-560.499 -181.599)"/><path class="e" d="M561.2,136.189a12.493,12.493,0,0,0-1.87,3.282c-.2.626-.307,1.279-.48,1.914a14.71,14.71,0,0,1-2.221,4.4c-2.19,3.184-4.925,6.258-5.476,10.082a17,17,0,0,0,.4,5.676,15.323,15.323,0,0,0,1.048,3.584c.564,1.217,1.4,2.287,2.047,3.464a24.6,24.6,0,0,1,1.483,3.589,17.6,17.6,0,0,0,1.817-2.665,3.424,3.424,0,0,1,2.585-1.7c1.235,0,2.252,1.021,3.473,1.181a.991.991,0,0,0,.568-.053c.444-.209.48-.808.444-1.288-.351-3.353-2.27-6.662-1.363-9.913.835-3.007,3.82-4.885,5.387-7.581a17.41,17.41,0,0,0,1.776-6.515,40.375,40.375,0,0,0,.591-8.1c-.084-1.363-1.168-9.98-3.149-9.078-.688.311-1.288,1.63-1.719,2.221l-1.776,2.518Z" transform="translate(-551.048 -106.029)"/></g><ellipse class="e" cx="8.39" cy="4.97" rx="8.39" ry="4.97" transform="translate(-71.071 4707.152)"/><g transform="translate(-257.389 4621.168)"><ellipse class="e" cx="0.777" cy="0.777" rx="0.777" ry="0.777" transform="translate(43.445 19.308)"/><ellipse class="e" cx="0.933" cy="0.933" rx="0.933" ry="0.933" transform="translate(40.963 25.21)"/><line class="j" y1="4.348" x2="9.322" transform="translate(45.311 20.24)"/><g transform="translate(0 0)"><path class="e" d="M413.674,467.753,341.49,504.384a5.023,5.023,0,0,0,.036,8.967l155.467,78.02a18.871,18.871,0,0,0,17.734-.444L580.209,554a5.023,5.023,0,0,0-.3-8.883L418.111,467.7a5.023,5.023,0,0,0-4.437.049Z" transform="translate(-338.567 -457.892)"/><path class="e" d="M340.777,536.56l-2.261,1.679-.178,8.039a3.34,3.34,0,0,0,1.812,3.047l158.123,81.142a2.354,2.354,0,0,0,3.433-2.092V616.7Z" transform="translate(-338.338 -496.441)"/><path class="i" d="M413.666,446.77,341.482,483.4a5.023,5.023,0,0,0,.022,8.967l155.48,78.02a18.884,18.884,0,0,0,17.734-.444L580.2,533.01a5.023,5.023,0,0,0-.3-8.883L418.1,446.716a5.023,5.023,0,0,0-4.437.053Z" transform="translate(-338.559 -446.226)"/><path class="e" d="M303.634,421.86,224.1,462.244,360.8,530.6l82.021-41.633Z" transform="translate(-213.587 -414.668)"/><rect class="k" width="46.376" height="15.989" rx="7.994" transform="translate(94.654 63.996) rotate(-30)"/><rect class="k" width="46.376" height="15.989" rx="7.994" transform="translate(118.193 75.989) rotate(-30)"/><rect class="k" width="46.376" height="15.989" rx="7.994" transform="translate(73.336 50.23) rotate(-30)"/></g></g><g transform="translate(-70.445 4461.625)"><rect class="l" width="10.154" height="10.154" transform="translate(38.975 52.317)"/><rect class="l" width="10.154" height="10.154" transform="translate(38.975 77.361)"/><rect class="l" width="10.154" height="10.154" transform="translate(38.975 102.402)"/><rect class="l" width="10.154" height="10.154" transform="translate(38.975 127.447)"/><path class="m" d="M902.6,358.893s-5.894-29.325-3.638-32.974c0,0,.082-3.392-.054-7.715v-.5a10.97,10.97,0,0,0,1.239.714,10.025,10.025,0,0,0,6.748.871l-1.785-1.989a3.3,3.3,0,0,1-.968-1.617,3.389,3.389,0,0,1,.386-1.749c1.7-4.284,1.785-9.672-1.482-12.942-2.76-2.749-3.431-6.3-6.426-8.808-2.189-1.839-3.392-4.534-4.527-7.14a40.165,40.165,0,0,1-2.478-6.758c-.428-1.824-.6-3.713-1.189-5.494a6.994,6.994,0,0,0-3.417-4.309,12.9,12.9,0,0,1-1.857-.818,8.018,8.018,0,0,1-1.71-2.01c-2.7-3.57-11.753-1.467-16.037-.018a9.021,9.021,0,0,0-3.17,1.757l.039-.064c.032-.054.071-.107.107-.161a5.636,5.636,0,0,0-1.2,1.339,32.132,32.132,0,0,0-1.407,3.213c-.628,1.267-4.123,4.805-2.62,6.23a1.266,1.266,0,0,0,.357.229,3.088,3.088,0,0,0,1.785.178l-.064.154a10.437,10.437,0,0,0-.775,3.959,10.716,10.716,0,0,0,10.81,10.621,10.916,10.916,0,0,0,3.309-.51c.025.136.047.271.071.407a1.25,1.25,0,0,0,.025.161h0l-.189.264a.353.353,0,0,0-.032-.046l-5.605,7.833c-.857.6-5.791,4.174-6.069,6.851-.293,2.931-.586,6.362-.586,6.362l-.039.736a2.206,2.206,0,0,1-1.785.482c-1.749-.286-1.749,6.426-1.749,6.426s-1.164,1.071-1.964.143-2.913,2.217-2.913,2.217l-13.245.571h0l-.3.018-.714-2.21a.932.932,0,0,0-1.167-.6,1.065,1.065,0,0,0-.161.068l-.05.029-.093.064-.046.043a.7.7,0,0,0-.071.075l-.043.05-.021.021h0a.9.9,0,0,0-.128.8l.614,1.9c-2.556.514-5.17,1.964-3.038,5.955l-10.8-2,3.5,2.935,18.044,3.724c-.239.428-.082,1.05.664,1.924,3.213,3.774,9.068,4.8,11.424,5.063a20.283,20.283,0,0,0,2.317,3.927l-.2,3.759s-5.966,28.654-7.058,30.107a16.971,16.971,0,0,0,1.51-1.989c-1.731,5.887-4.152,13.945-4.787,15.152-1.021,1.928-1.967,9.729-.8,10.229a9.794,9.794,0,0,0,2.835-.032v.646l-.064,24.488s.293,15.02-.51,16.451a14,14,0,0,0-1.018,4.434s-3.213,5.923-5.759,8.3a.381.381,0,0,1-.057.05l-.078-.557s-3.06,3.863-9.829,3.645c0,0-4.074,2.649,1.967,2.792s13.756-.214,13.756-.214,5.387-8.211,9.9-7.14v6.223H859.6V456.8a5.666,5.666,0,0,0,2.46-3.724,4.526,4.526,0,0,0-1.614-4.188,2.678,2.678,0,0,1-.882-1.956l-.05.043a3.773,3.773,0,0,0-.046-.386c-.4-3.213-.893-9.843.86-14.748,2.4-6.726,3.131-16.094,1.382-21.671a49.837,49.837,0,0,1-1.389-5.43c-.043-.232-.082-.453-.118-.66a28.138,28.138,0,0,1,3.545.714c4.052,1.117,12.917,1.325,20.486,1.264.018.207.039.425.064.643a23.382,23.382,0,0,0,.843,4.47c.95,2.856,1.385,15.448,1.385,15.448s1.224,10.353.557,14.566c-.357,2.342-.714,4.695-.918,7.058v.046s-2.006,5.712-3.474,8.815c-.036.079-.075.157-.111.232a4.641,4.641,0,0,0-1.146.254s-1.967,3.927-3.927,4.577-1.31,2.788,3.127,2,11.139-1.428,11.139-1.428l.289-4.006,1.364-1.707-.357,3.995,1.453-.286-.193-4.859,2.231-2.792s2.7-2.4-1.31-7.119v.1c-.043-.068-.082-.139-.128-.207v-.021c-.664-1.028-1.193-2.945-.225-6.348,1.749-6.148,2.767-11.728,2.767-11.728s3.906-14.948-.789-22.021h.207a11.891,11.891,0,0,1-1.01-3.142q-.036-.193-.064-.4a25.762,25.762,0,0,0,9.664-2.185C905.658,400.014,903.984,364.541,902.6,358.893Zm-44.1-24.741v.071l-.714.036Zm-2.449.339a.79.79,0,0,0-.321.154,3.171,3.171,0,0,0-.561,1.467l-1.114-.25s-.782-.168-1.906-.357l-.532-.535C853.077,334.848,854.6,334.669,856.047,334.491Z" transform="translate(-822.47 -263.692)"/><path class="n" d="M971.745,742.244l-.425,5.059,1.425-.285-.214-5.487Z" transform="translate(-901.313 -550.002)"/><path class="g" d="M893.737,680.336c-1.717,4.891-1.232,11.492-.846,14.7.143,1.185.275,1.907.275,1.907s-2.567,5.848-2.781,6.069-7.554,4.7-7.554,4.7l-5.13,3s-5.205-2.281-2.71-3.067a3.785,3.785,0,0,0,1.346-.917c2.5-2.374,5.637-8.276,5.637-8.276a14.235,14.235,0,0,1,1-4.42c.785-1.424.5-16.394.5-16.394l.061-24.4V650.05l9.764.071a22.1,22.1,0,0,0,.421,3.213,49.131,49.131,0,0,0,1.36,5.412C896.8,664.313,896.087,673.634,893.737,680.336Z" transform="translate(-855.804 -512.114)"/><path class="h" d="M893.166,777.969s-2.567,5.848-2.781,6.069-7.554,4.7-7.554,4.7l-5.13,3s-5.205-2.281-2.71-3.067a3.787,3.787,0,0,0,1.346-.918l.221,1.56,1.71-.071,14.638-13.17C893.034,777.248,893.166,777.969,893.166,777.969Z" transform="translate(-855.804 -593.143)"/><path class="e" d="M876.655,777l-14.72,13.26-1.71.071-.357-2.5s-2.992,3.849-9.639,3.634c0,0-3.991,2.638,1.924,2.781s13.47-.214,13.47-.214,5.277-8.211,9.693-7.14v6.2h1.357v-6.259a5.638,5.638,0,0,0,2.406-3.713,4.549,4.549,0,0,0-1.574-4.17,2.688,2.688,0,0,1-.85-1.953Z" transform="translate(-839.472 -593.741)"/><path class="g" d="M999.673,687.483c-.95,3.392-.432,5.3.218,6.326v.021A11.692,11.692,0,0,1,1001.6,698l.057.321-6.7,9.764-3.634,1.428s-5.844-2-4.777-2.567a5.472,5.472,0,0,0,1.164-1.906c1.428-3.088,3.4-8.786,3.4-8.786V696.2c.207-2.353.536-4.7.9-7.033.653-4.2-.546-14.516-.546-14.516s-.428-12.542-1.357-15.394a23.533,23.533,0,0,1-.832-4.441c-.193-1.785-.236-3.256-.236-3.256s3.849-5.355,10.9.428a7.762,7.762,0,0,1,1.474,1.6c4.873,6.933.95,22.206.95,22.206S1001.383,681.353,999.673,687.483Z" transform="translate(-927.884 -511.635)"/><path class="h" d="M1001.684,778.315l-6.7,9.764-3.634,1.428s-5.844-2-4.777-2.567a5.468,5.468,0,0,0,1.164-1.907,4.619,4.619,0,0,1,3.756,2.335l3.135-.5s4.134-8.126,5.062-8.622.143-3.709.143-3.709v-.818c.025.029.046.061.075.089v.021a11.685,11.685,0,0,1,1.706,4.166Z" transform="translate(-927.903 -591.632)"/><path class="e" d="M983.032,787.952s-1.785-3.277-5.205-2.067c0,0-1.924,3.927-3.849,4.563s-1.282,2.778,3.067,2,10.9-1.428,10.9-1.428l.286-3.995,4.42-5.63s2.635-2.388-1.285-7.09v.818s.785,3.213-.143,3.709-5.048,8.625-5.048,8.625Z" transform="translate(-919.226 -592.005)"/><path class="h" d="M909.915,650.1a22.115,22.115,0,0,0,.421,3.213,44.794,44.794,0,0,0-10.2-.1V650.03Z" transform="translate(-872.411 -512.101)"/><path class="h" d="M1006.56,654.474s-5.712.278-12.524.336c-.193-1.785-.236-3.256-.236-3.256s3.849-5.355,10.9.428a7.763,7.763,0,0,1,1.474,1.6A8.69,8.69,0,0,0,1006.56,654.474Z" transform="translate(-932.632 -511.629)"/><path class="o" d="M940.4,541.2s-25.02,1.21-32.646-.928-15.184-.286-16.323-.782-.214-8.268.785-10.193,6.483-21.385,6.483-21.385L903.98,480.4l5.559-1.532.393-.111,9.686-2.67,7.1-1.96s14.113,55.1,12.9,59.161a10.4,10.4,0,0,0-.207,4.781A11.928,11.928,0,0,0,940.4,541.2Z" transform="translate(-866.476 -399)"/><path class="p" d="M871.263,439s-5,5.355-1.214,8.34,6.273.286,6.273.286Z" transform="translate(-852.152 -376.412)"/><path class="h" d="M871.263,439s-5,5.355-1.214,8.34,6.273.286,6.273.286Z" transform="translate(-852.152 -376.412)"/><path class="g" d="M969.853,322.8s-.586.557-1.467,1.378c-1.257,1.175-3.117,2.892-4.766,4.331-2.285,1.989-4.17,3.449-3.5,2.2s.546-3.417.211-5.448c-.025-.136-.046-.271-.071-.4a37.408,37.408,0,0,0-1.1-4.413,76.354,76.354,0,0,1,5.734-6.651c.76-.714,1.292-1.007,1.325-.511a16.58,16.58,0,0,0,1.157,3.706c.018.05.036.1.057.146.414,1.071.882,2.171,1.292,3.12C969.353,321.714,969.853,322.8,969.853,322.8Z" transform="translate(-910.359 -295.421)"/><path class="h" d="M967.432,317.145a10.6,10.6,0,0,1-7.1,8.126,37.157,37.157,0,0,0-1.175-4.816s6.951-8.979,7.058-7.162A16.978,16.978,0,0,0,967.432,317.145Z" transform="translate(-910.36 -295.428)"/><path class="h" d="M936.437,351.717l.9-1.267s.6,3.634,2.788,2.031,2.3,12.064,2.3,12.064l-2.353,35.177-17-1.017.482-17,1.924-8.568,4.759-12.456,2.831-4.116Z" transform="translate(-887.154 -319.476)"/><path class="q" d="M942.443,365.123,940.3,396.929l-.225,3.37-9.479-.568-.357-.021-7.14-.428.482-17,1.924-8.568,4.759-12.456,2.831-4.116,3.37-4.866.9-1.264s.6,3.634,2.788,2.031l.046-.032h0C942.343,351.653,942.443,365.123,942.443,365.123Z" transform="translate(-887.174 -319.836)"/><path class="r" d="M890.832,406.26a2.6,2.6,0,0,1-2.567,1.5c-1.714-.289-1.71,6.426-1.71,6.426s-1.139,1.071-1.924.143-2.856,2.21-2.856,2.21l-12.974.571s5.773,2.638,4.641,10.621c0,0,19.6-1.214,20.243-3.067S890.832,406.26,890.832,406.26Z" transform="translate(-852.26 -355.361)"/><path class="s" d="M890.832,406.26a2.6,2.6,0,0,1-2.567,1.5c-1.714-.289-1.71,6.426-1.71,6.426s-1.139,1.071-1.924.143-2.856,2.21-2.856,2.21l-12.974.571s5.773,2.638,4.641,10.621c0,0,19.6-1.214,20.243-3.067S890.832,406.26,890.832,406.26Z" transform="translate(-852.26 -355.361)"/><path class="r" d="M777.66,389.76l3.42,2.92,28.154,5.916-3.492-3.563Z" transform="translate(-776.792 -323.82)"/><path class="r" d="M923.952,351.138a72,72,0,0,0-2.924,7.562c-.932,2.66-1.71,5-1.71,5s-1.817,11.831-2.745,13.97-.425,10.478-.425,10.478l-3.459,20.6s-1.567,10.621-3.988,16.965c-2.388,6.244-5.048,9.172-5.13,9.265,1.071-1.449,6.908-29.989,6.908-29.989l1.928-35.994s.282-3.42.568-6.344,6.069-6.915,6.069-6.915l5.577-7.929C925.18,348.55,924.805,349.856,923.952,351.138Z" transform="translate(-874.616 -317.772)"/><path class="t" d="M896.631,472.5s-8.211-.357-12.189-5.134,9.193-1.906,9.193-1.906l3.424.785Z" transform="translate(-861.836 -392.876)"/><path class="h" d="M973.169,457.618a10.4,10.4,0,0,0-.207,4.78,68.05,68.05,0,0,1-18.54-1.785,41.642,41.642,0,0,1-6.487,4.063L945.371,432.9c-1.639-4.284-2.281-26.73-2.281-26.73s.146-1.175.357-2.935a.337.337,0,0,1,.018-.132c.639-4.916,1.906-14.145,2.528-15.391.857-1.714-2.635-6.273-2.635-6.273l1.589-13.549.193-1.635c3.349-1.5,5.916-6.273,5.916-6.273l1.971-3.452h0c2.142-1.375,2.253,12.1,2.253,12.1l-2.142,31.807,7.1-1.96S974.379,453.555,973.169,457.618Z" transform="translate(-900.027 -323.323)"/><path class="r" d="M983.133,444.489c-9.764,4.848-27.512.357-27.512.357a41.641,41.641,0,0,1-6.487,4.063l-2.567-31.774c-1.635-4.284-2.278-26.73-2.278-26.73s2.064-16.748,2.92-18.458a2.75,2.75,0,0,0-.168-2.042,25.838,25.838,0,0,1-1.564-11.956l.685-5.823.189-1.632c3.352-1.5,5.919-6.276,5.919-6.276l1.785-3.127,3.285-5.762L958.9,332.6l.264.239,2.017,1.828,2.142,1.785c2.8,2.356,7.626,6.5,10.118,9.043,2.192,2.235,2.885,10.928,3.085,17.472.132,4.309.054,7.687.054,7.687-2.21,3.638,3.57,32.845,3.57,32.845C981.495,409.144,983.133,444.489,983.133,444.489Z" transform="translate(-900.798 -307.999)"/><path class="s" d="M946.478,364.033s-6.7,12.756-5.923,17.6,2.992,10.336,1.924,11.617a3.944,3.944,0,0,1-3.138,1.567,10.316,10.316,0,0,0-3.927,2.281c0,.214-2.638.214-5,1.214a31.122,31.122,0,0,1-5.844,1.567s-6.783-.214-7.415.428-1.282,4.488.071,7.554,2.856,5.355,3.991,5.773,8.34-2,14.184-2.567,12.189-5.2,12.189-5.2,6.987-2.5,8.211-6.7-1.5-27.3-1.5-27.3S952.251,361.109,946.478,364.033Z" transform="translate(-882.887 -327.886)"/><path class="s" d="M944.1,361.035s-6.7,12.76-5.916,17.6,2.992,10.336,1.921,11.621a3.927,3.927,0,0,1-3.135,1.567,10.315,10.315,0,0,0-3.927,2.281c0,.214-2.638.214-5,1.21a31.427,31.427,0,0,1-5.844,1.567s-6.783-.214-7.412.428-1.285,4.491.071,7.554,2.856,5.355,3.991,5.773,8.34-2,14.184-2.563,12.188-5.205,12.188-5.205,6.983-2.5,8.194-6.7-1.5-27.3-1.5-27.3S949.87,358.115,944.1,361.035Z" transform="translate(-881.362 -325.959)"/><path class="r" d="M945.9,362.242s-6.7,12.76-5.916,17.6,2.992,10.336,1.924,11.617a3.927,3.927,0,0,1-3.138,1.571,10.363,10.363,0,0,0-3.927,2.278c0,.211-2.635.214-5,1.214A31.194,31.194,0,0,1,924,398.094s-6.783-.214-7.415.428-1.282,4.491.071,7.554,2.856,5.355,3.991,5.773,8.34-2,14.184-2.567,12.189-5.2,12.189-5.2,6.987-2.5,8.211-6.7-1.478-27.3-1.478-27.3S951.67,359.336,945.9,362.242Z" transform="translate(-882.52 -326.737)"/><path class="h" d="M992.593,458.426s-5.355-1.071-3.492.714,1.853,3.349,4.134,3.277S992.593,458.426,992.593,458.426Z" transform="translate(-929.358 -388.698)"/><path class="h" d="M1023.8,566.58s-2.42,1.639,2.21,5.416S1023.8,566.58,1023.8,566.58Z" transform="translate(-951.516 -458.444)"/><path class="h" d="M1011.813,604.31c0,.214-.857,7.854,2.349,9.764S1011.813,604.31,1011.813,604.31Z" transform="translate(-944.147 -482.704)"/><path class="t" d="M858.461,436.59c-2.585.089-8.169.878-5.273,6.28,2.56,4.78,6.862,1.585,9.282-.839A9.122,9.122,0,0,0,858.461,436.59Z" transform="translate(-841.699 -374.862)"/><path class="t" d="M881.39,451Z" transform="translate(-860.355 -384.128)"/><path class="t" d="M880.74,451.511l.107-.111Z" transform="translate(-859.937 -384.385)"/><path class="h" d="M966.7,337.049c-2.742,1.874-5.041,3.456-5.491,3.784-1.228.91-3.57,6.255-5.08,8.982-1.2,2.2-5.112,2.76-6.587,2.9l.189-1.632c3.352-1.5,5.919-6.276,5.919-6.276l6.626-11.617,2.281,2.074Z" transform="translate(-904.174 -308.378)"/><path class="u" d="M966.7,336.449c-2.742,1.874-5.041,3.456-5.491,3.788-1.228.907-3.57,6.251-5.08,8.979-1.2,2.2-5.112,2.76-6.587,2.9l.189-1.632c3.352-1.5,5.919-6.276,5.919-6.276l6.626-11.617,2.281,2.067S965.413,335.364,966.7,336.449Z" transform="translate(-904.174 -307.992)"/><path class="g" d="M944.676,298.851a10.589,10.589,0,1,1-9-10.468,10.571,10.571,0,0,1,9,10.468Z" transform="translate(-887.428 -279.49)"/><path class="h" d="M964.54,334.463a9.411,9.411,0,0,1-3.417-3.67c-.6-1.178-.992-2.538-2.01-3.374a8.927,8.927,0,0,0-3.285-1.267c-3.756-1.11-6.9-4.538-7.023-8.451-.057-1.842.518-3.681.257-5.505a6.1,6.1,0,0,0-1.192-2.838,9.78,9.78,0,0,0-1.032-1.11c-.5-.471-1.025-.928-1.482-1.428a5.542,5.542,0,0,1-.75-1.018,4.9,4.9,0,0,1-.411-.946c-.714-2.185-.064-4.777-.85-6.987l-.043-.121a2.273,2.273,0,0,0-1.739-1.632c-.839-.061-1.557.635-2.356.946-1.674.65-3.481-.457-4.877-1.585s-2.97-2.417-4.745-2.167c-1.175.168-2.1.967-3.185,1.382a4.468,4.468,0,0,1-.753.218,10.586,10.586,0,0,1,20.411,3.945,10.477,10.477,0,0,1-.232,2.21c.018.05.036.1.057.146.414,1.071.882,2.171,1.292,3.12l2.017,1.828,2.142,1.785c2.8,2.356,7.626,6.5,10.118,9.043C963.647,319.229,964.333,327.919,964.54,334.463Z" transform="translate(-888.813 -279.49)"/><path class="e" d="M922.311,275.1c.542-1.242.811-2.633,1.458-3.81a8.161,8.161,0,0,1,4.314-3.46c4.45-1.728,13.854-4.237,16.665,0a9.066,9.066,0,0,0,1.776,2.389,12.519,12.519,0,0,0,1.928.977c1.792.947,2.935,3.012,3.545,5.12s.792,4.369,1.238,6.541a52.213,52.213,0,0,0,2.575,8.051c1.178,3.1,2.428,6.31,4.7,8.5,3.1,2.987,3.787,7.215,6.666,10.492,3.409,3.891,3.3,10.312,1.541,15.411a4.683,4.683,0,0,0-.4,2.082,4.224,4.224,0,0,0,1,1.928l1.864,2.368c-4.409,1.2-9.4-1.4-11.449-5.948-.633-1.408-1.053-3.029-2.136-4.032a8.844,8.844,0,0,0-3.48-1.51,11.272,11.272,0,0,1-7.45-10.108c-.061-2.2.549-4.395.273-6.571a7.767,7.767,0,0,0-1.269-3.413c-1.042-1.532-2.613-2.56-3.462-4.267-1.435-2.854-.345-6.562-1.379-9.626-.318-.939-.954-1.877-1.845-1.95s-1.651.759-2.5,1.131c-1.772.776-3.689-.542-5.17-1.894s-3.151-2.888-5.037-2.586c-1.246.2-2.227,1.152-3.375,1.651-.849.367-2.568.7-3.31-.111C918.023,280.832,921.656,276.621,922.311,275.1Z" transform="translate(-886.76 -264.856)"/><path class="h" d="M951.2,351.674a72.01,72.01,0,0,0-2.924,7.562c-1.046-.407-2-3-2-3l5.576-7.933C952.428,349.085,952.053,350.389,951.2,351.674Z" transform="translate(-902.078 -318.094)"/><path class="u" d="M951.8,351.08a72.055,72.055,0,0,0-2.924,7.562c-1.046-.4-2-3-2-3l5.577-7.929C953.028,348.492,952.653,349.8,951.8,351.08Z" transform="translate(-902.464 -317.714)"/><path class="v" d="M864.194,439.611l-3.092-9.75a.91.91,0,0,1,.593-1.146h0a.914.914,0,0,1,1.143.593l3.092,9.739-.307,2.039Z" transform="translate(-847.282 -369.772)"/><path class="w" d="M861.659,429.03h0a.914.914,0,0,1,1.146.593l3.092,9.739-.232,1.528.225.236.307-2.039-3.11-9.739a.914.914,0,0,0-1.142-.593h0a.914.914,0,0,0-.475.357A1.244,1.244,0,0,1,861.659,429.03Z" transform="translate(-847.546 -369.798)"/><path class="x" d="M822.6,399.69l1.735-.55-.254,1.671-.054.368-.507-.528Z" transform="translate(-805.688 -329.851)"/><path class="y" d="M872.42,461.789a.358.358,0,0,1,.111-.093.157.157,0,0,1,.168,0,.439.439,0,0,1,.061.1.307.307,0,0,0,.221.146l-.053.357Z" transform="translate(-854.587 -390.99)"/><path class="t" d="M861.13,441.7s6.2-.036,4.741,2.6a5.577,5.577,0,0,1-3.742,2.956Z" transform="translate(-847.328 -378.148)"/></g><g transform="translate(-272.157 4461.294)"><path class="h" d="M276.57,229.682l-14.288,11.632L243.9,238.027l12.378-9.717Z" transform="translate(-208.983 -161.517)"/><path class="h" d="M277.264,225.262l-14.292,11.632-18.382-3.287,12.382-9.718Z" transform="translate(-209.366 -159.06)"/><g transform="translate(0 0)"><path class="g" d="M404.348,236.5c2.483,2.349,6.053,3.033,9.158,4.441a19.661,19.661,0,0,1,6.116,4.441c.955,1.048,1.879,2.474,1.4,3.806-.4,1.146-1.643,1.732-2.78,2.158a6.322,6.322,0,0,1-4.4.466,15.79,15.79,0,0,1-2.252-1.395c-1.861-1.106-4.206-1.11-6.116-2.132-2.691-1.439-4.033-4.606-6.564-6.315-1.386-.933-3.3-1.7-3.442-3.362a4.063,4.063,0,0,1,.373-1.745c.511-1.359,1.381-6.027,3.327-5.9C401.288,231.095,402.771,235.372,404.348,236.5Z" transform="translate(-354.486 -181.001)"/><path class="g" d="M356.272,501.021a4.886,4.886,0,0,0-.688,1.652,3.69,3.69,0,0,0-.049,1.395,7.209,7.209,0,0,0,1.985-.728c1.435-.791,2.665-2.336,2.381-3.948a3.611,3.611,0,0,0-.289-.888,1.239,1.239,0,0,0-1.181.369A9.809,9.809,0,0,0,356.272,501.021Z" transform="translate(-332.262 -329.707)"/><path class="e" d="M321.155,424.706a2.185,2.185,0,0,0-.164,1.332c.2.888,1.115,1.4,1.936,1.8l7.812,3.819a16.35,16.35,0,0,1,1.581.839,23.282,23.282,0,0,1,3.518,3.029,9.229,9.229,0,0,0,3.908,2.421,6.6,6.6,0,0,0,4.441-.582,9.177,9.177,0,0,0,2.034-1.381,12.506,12.506,0,0,0,1.466-1.523,3.287,3.287,0,0,0,.795-1.435,3.149,3.149,0,0,0-.728-2.283,10.546,10.546,0,0,0-.888-1.1c-2.962-3.273-7.817-4.97-11.991-5.636a34.147,34.147,0,0,1-4.837-1.395,11.324,11.324,0,0,0-4.952-.653A4.9,4.9,0,0,0,321.155,424.706Z" transform="translate(-313.063 -287.136)"/><path class="e" d="M309.908,463.294a6.077,6.077,0,0,0,1.048,1.87c1.608,2.1,3.851,3.771,4.885,6.218.218.524.377,1.075.577,1.608a10.573,10.573,0,0,0,2.887,4.184,17.766,17.766,0,0,0,3.184,2.11,12.847,12.847,0,0,0,6.315,1.981,6.859,6.859,0,0,0,1.332-.16,7.208,7.208,0,0,0,1.985-.728c1.435-.791,2.665-2.336,2.38-3.948a3.608,3.608,0,0,0-.289-.888,9.325,9.325,0,0,0-.813-1.283,9.639,9.639,0,0,0-2.62-2.771c-1.235-.755-2.789-.942-3.9-1.874a6.128,6.128,0,0,1-1.124-1.359,17.133,17.133,0,0,1-2.221-5.032c-.338-1.332-.564-2.794-1.537-3.771a9.4,9.4,0,0,0-4.939-1.55,3.764,3.764,0,0,1-1.888-.093c-.6-.3-.8-.719-1.514-.662a3.109,3.109,0,0,0-1.559.68A5.246,5.246,0,0,0,309.908,463.294Z" transform="translate(-306.83 -306.73)"/><path class="g" d="M329.814,468.09a6.869,6.869,0,0,0,1.9,4.09c.742.64,1.776,1.039,2.145,1.941a3.165,3.165,0,0,1-.719,2.86,10.535,10.535,0,0,1-2.86,2.625,4.276,4.276,0,0,1-3.144.768,5.25,5.25,0,0,1-2.252-1.466,15.633,15.633,0,0,1-3.926-4.757c-.888-1.99-.933-4.295-1.9-6.253a20.534,20.534,0,0,1-1.777-3.366,2.092,2.092,0,0,1,0-1.368,1.928,1.928,0,0,1,1.741-1.035,6.059,6.059,0,0,1,2.083.444,45.871,45.871,0,0,0,6.142,1.719c.831.155,1.332.151,1.777.955A9.576,9.576,0,0,1,329.814,468.09Z" transform="translate(-310.956 -309.505)"/><path class="h" d="M321.155,424.706a2.185,2.185,0,0,0-.164,1.332c.2.888,1.115,1.4,1.936,1.8l7.812,3.819a16.35,16.35,0,0,1,1.581.839,23.282,23.282,0,0,1,3.518,3.029,9.229,9.229,0,0,0,3.908,2.421,6.6,6.6,0,0,0,4.441-.582,9.177,9.177,0,0,0,2.034-1.381,12.506,12.506,0,0,0,1.466-1.523,3.287,3.287,0,0,0,.795-1.435,3.149,3.149,0,0,0-.728-2.283,10.546,10.546,0,0,0-.888-1.1c-2.962-3.273-7.817-4.97-11.991-5.636a34.147,34.147,0,0,1-4.837-1.395,11.324,11.324,0,0,0-4.952-.653A4.9,4.9,0,0,0,321.155,424.706Z" transform="translate(-313.063 -287.136)"/><path class="g" d="M357.843,432.063a8.883,8.883,0,0,1,1.466,2.261,2.532,2.532,0,0,1,.333,1.808,2.639,2.639,0,0,1-.813,1.066l-.777.72a3.108,3.108,0,0,1-.808.6,3.233,3.233,0,0,1-1.332.2,4.964,4.964,0,0,1-3.016-.626,3.338,3.338,0,0,1-.839-3.891,8.4,8.4,0,0,1,2.749-3.229C355.711,430.242,357.208,431.393,357.843,432.063Z" transform="translate(-330.2 -292.056)"/><path class="g" d="M376.019,441.425a3.948,3.948,0,0,0,.2,2.2c.2.666.386,1.332.577,2.012v.027a12.506,12.506,0,0,0,1.466-1.523,3.286,3.286,0,0,0,.795-1.435,3.149,3.149,0,0,0-.728-2.283,10.532,10.532,0,0,0-.888-1.1c-.209.271-.391.537-.542.711A3.922,3.922,0,0,0,376.019,441.425Z" transform="translate(-343.633 -296.825)"/><path class="e" d="M329.12,333.5c-.919,3.864-.529,7.905-.04,11.849.373,3,.791,6.111-.1,9a7.235,7.235,0,0,0-.648,3.291c.378,2.1,2.909,2.909,5.005,3.3a4.936,4.936,0,0,0,1.852.111,4.4,4.4,0,0,0,1.688-.888,18.449,18.449,0,0,0,6.5-8.638,31.956,31.956,0,0,0,1.292-7.222,50.528,50.528,0,0,0,.222-12.333c-.178-1.2-.444-2.385-.555-3.593a25.964,25.964,0,0,1,.346-6.284,101.381,101.381,0,0,1,3.464-15.163,20.43,20.43,0,0,1-12.293-2.221c.728.391-.107,6.622-.2,7.5a50.882,50.882,0,0,1-1.408,7.728C333.011,324.684,330.244,328.8,329.12,333.5Z" transform="translate(-317.142 -222.005)"/><path class="h" d="M329.12,333.5c-.919,3.864-.529,7.905-.04,11.849.373,3,.791,6.111-.1,9a7.235,7.235,0,0,0-.648,3.291c.378,2.1,2.909,2.909,5.005,3.3a4.936,4.936,0,0,0,1.852.111,4.4,4.4,0,0,0,1.688-.888,18.449,18.449,0,0,0,6.5-8.638,31.956,31.956,0,0,0,1.292-7.222,50.528,50.528,0,0,0,.222-12.333c-.178-1.2-.444-2.385-.555-3.593a25.964,25.964,0,0,1,.346-6.284,101.381,101.381,0,0,1,3.464-15.163,20.43,20.43,0,0,1-12.293-2.221c.728.391-.107,6.622-.2,7.5a50.882,50.882,0,0,1-1.408,7.728C333.011,324.684,330.244,328.8,329.12,333.5Z" transform="translate(-317.142 -222.005)"/><path class="e" d="M346.7,303.764c1.776,5.147,1.386,10.77.617,16.162s-1.9,10.783-1.568,16.215c.129,2.132.475,4.321-.147,6.36a13.9,13.9,0,0,1-1.363,2.838l-14.172,24.507a4.406,4.406,0,0,1-3.553,2.221,10.29,10.29,0,0,1-4.415-.946,7.941,7.941,0,0,1-2.572-1.426,3.042,3.042,0,0,1-1.084-2.6c.635-4.255,1.59-8.612,2.3-12.88a22.3,22.3,0,0,1,3.082-8.159c1.1-1.776,2.447-3.371,3.393-5.218,2.718-5.294,1.776-11.752-.32-17.321s-5.219-10.739-6.884-16.433a18.839,18.839,0,0,1-.839-4.885,13.026,13.026,0,0,1,3.713-9.264,3.256,3.256,0,0,1,1.284-.888,3.6,3.6,0,0,1,1.75.031C333.812,293.607,344.094,296.161,346.7,303.764Z" transform="translate(-311.664 -214.907)"/><path class="g" d="M357.031,180.861c.813,2.922,2.7,5.414,4.659,7.732,1.408,1.665,2.953,3.478,3,5.658a5.963,5.963,0,0,1-3.109,5.01,13.173,13.173,0,0,1-5.925,1.523,14.944,14.944,0,0,1-4.912-.342c-4.059-1.1-6.875-4.641-10.068-7.377-1.9-1.621-4.028-3.033-5.481-5.063s-2.065-4.943-.635-6.991a10.116,10.116,0,0,1,1.777-1.777,29.7,29.7,0,0,0,6.125-7.35,7.917,7.917,0,0,1,2.394-2.993c1.586-.964,3.62-.524,5.414-.053,1.95.511,7.444,1.51,7.826,4,.155,1.021-1.11,2.611-1.3,3.708a9.825,9.825,0,0,0,.235,4.317Z" transform="translate(-320.178 -146.183)"/><path class="z" d="M357.3,194.891a18.753,18.753,0,0,1,1.43,3.309c1.355,4.708-1.066,9.558-2.221,14.319-1.474,6.1-.848,12.476-.919,18.751-.031,2.869-.338,6.027-2.4,8.016a7.443,7.443,0,0,0-1.532,1.572,6.508,6.508,0,0,0-.493,1.47,7.577,7.577,0,0,1-10.979,4.521c-1.683-.937-3.144-2.563-5.072-2.611a14.706,14.706,0,0,0-1.808.2,12.4,12.4,0,0,1-5.6-1.217,3.651,3.651,0,0,1-1.181-.631c-.324-.3-.533-.7-.831-1.017-1.1-1.181-2.971-.977-4.552-1.306a6.373,6.373,0,0,1-4.828-4.828,12.457,12.457,0,0,1,.218-4.65l1.19-6.866a63.2,63.2,0,0,0,1.035-7.626,31.976,31.976,0,0,0-.737-8.621,69.087,69.087,0,0,1-1.59-6.924,16.917,16.917,0,0,1,3.109-11.907,3.694,3.694,0,0,1,2.474-1.777,4.158,4.158,0,0,1,2.381.813q9.606,5.685,19.346,11.134a22.889,22.889,0,0,0,5.574,2.5c.6.151,1.448.089,1.532-.515a1.124,1.124,0,0,0-.173-.653c-1.11-2.136-2.718-3.971-4-6s-2.265-4.441-1.888-6.8c.515-3.269,3.553-5.432,6.036-2.869C353.612,187.576,355.477,191.316,357.3,194.891Z" transform="translate(-310.407 -154.644)"/><path class="g" d="M349.134,294.294c5.21.333,10.535.688,15.358,2.687,1.55.64,3.193,1.466,4.823,1.07a6.449,6.449,0,0,0,2.221-1.19,50.8,50.8,0,0,0,5.676-4.841c-.178-.973-1.5-1.106-2.483-1.1a14.839,14.839,0,0,1-6.911-1.661,11.643,11.643,0,0,0-2.221-1.035c-2.11-.582-4.259.529-6.378,1.07-3.136.8-6.44.333-9.642-.138l-8.643-1.275a3.088,3.088,0,0,0-2.349.289,2.869,2.869,0,0,0-.839,1.506c-1.057,3.553-.551,3.851,2.967,4.073Z" transform="translate(-322.126 -212.596)"/><ellipse class="h" cx="13.324" cy="13.324" rx="13.324" ry="13.324" transform="translate(17.25 6.916)"/><ellipse class="g" cx="13.324" cy="13.324" rx="13.324" ry="13.324" transform="translate(17.765 6.192)"/><path class="e" d="M346.942,124.968a35.14,35.14,0,0,0-10.539-5.543c-2.434-.791-5.081-1.332-7.55-.6-3.349.955-7.83,2.381-9.9,5.183a14.846,14.846,0,0,0-2.549,4.441c-.986,3.313.417,6.844.324,10.3-.111,4.028-2.247,7.706-4.579,10.992s-2.8,7.994-4.179,11.787c-.471,1.3-.622,3.109.591,3.762,1.066.591,2.354-.147,3.34-.857l5.929-4.286a4.517,4.517,0,0,1,1.563-.835c1.221-.284,2.416.48,3.438,1.2l12.436,8.794a3.815,3.815,0,0,0,.058-3.233c1.168.36,2.016,1.332,3.042,2.025s2.585.919,3.331-.049.182-2.27-.648-3.051-1.923-1.248-2.736-2.052c-1.612-1.6-1.777-4.135-2.794-6.16-.728-1.421-1.905-2.611-2.421-4.126-.839-2.474.258-5.139,1.332-7.519,1.284-2.825,2.736-5.84,5.467-7.315.919-.5,1.936-.791,2.878-1.244a15.517,15.517,0,0,0,6.418-6.151C350.193,128.321,348.648,126.282,346.942,124.968Z" transform="translate(-305.652 -118.478)"/><path class="h" d="M324.891,231.685c1.275.813,2.714,1.332,3.966,2.181a4.84,4.84,0,0,1,2.385,3.646c.036,1.443-.888,2.709-1.776,3.855l-10.819,14.2,5.516,1.461a14.409,14.409,0,0,0-1.577,4.228c-.462,1.439-1.332,2.936-2.807,3.313-1.332.342-2.727-.36-4.1-.28-1.017.062-1.976.542-2.993.582a6.358,6.358,0,0,1-3.62-1.368c-2.434-1.63-4.85-3.966-4.832-6.9a10.431,10.431,0,0,1,.591-2.9c1.594-5.2,3.247-10.526,6.551-14.852a46.622,46.622,0,0,1,6.12-6.2,5.707,5.707,0,0,1,1.714-1.186c1.421-.533,2.971.124,4.441.551s3.322.489,4.17-.768" transform="translate(-303.768 -181.165)"/><path class="z" d="M323.846,229.676c1.275.808,2.714,1.332,3.966,2.181A4.858,4.858,0,0,1,330.2,235.5c.04,1.506-.888,2.714-1.776,3.859L317.6,253.544,323.118,255a14.36,14.36,0,0,0-1.577,4.228c-.462,1.443-1.332,2.936-2.807,3.313-1.332.342-2.727-.36-4.1-.28-1.017.058-1.976.542-2.993.577a6.357,6.357,0,0,1-3.62-1.368c-2.434-1.625-4.85-3.966-4.828-6.893a10.216,10.216,0,0,1,.586-2.9c1.594-5.205,3.247-10.53,6.551-14.852a47.889,47.889,0,0,1,6.12-6.218,5.872,5.872,0,0,1,1.714-1.186c1.421-.533,2.971.124,4.441.555s3.322.489,4.17-.768" transform="translate(-303.19 -180.031)"/><path class="i" d="M275.41,231.312l-14.288,11.632-18.382-3.287,12.378-9.718Z" transform="translate(-208.338 -162.423)"/><path class="i" d="M276.334,228.287l-14.288,11.627-18.387-3.282,12.382-9.722Z" transform="translate(-208.849 -160.739)"/><path class="i" d="M277.03,223.872,262.742,235.5l-18.382-3.287,12.378-9.717Z" transform="translate(-209.238 -158.287)"/></g></g></g></svg>